<svg width="215" height="57" viewBox="0 0 215 57" fill="none" xmlns="http://www.w3.org/2000/svg">
<path d="M27.9178 49.4664C39.6278 49.4664 49.1207 39.9735 49.1207 28.2635C49.1207 16.5534 39.6278 7.06055 27.9178 7.06055C16.2077 7.06055 6.71484 16.5534 6.71484 28.2635C6.71484 39.9735 16.2077 49.4664 27.9178 49.4664Z" fill="#00BA67"/>
<path d="M32.0075 29.5858L29.0774 31.8852L33.6761 37.7659L30.7256 40.0449L26.1269 34.1642L23.1967 36.4636L20.8974 33.5334L22.3624 32.3939L20.0631 29.4638C17.9062 26.6557 18.0079 22.7285 20.3073 20.0425L18.0079 17.092C15.8713 14.3653 12.2493 13.47 9.17676 14.6909V10.8044C13.4296 9.72592 18.0893 11.1503 20.9584 14.8333L23.3595 17.9059C26.3914 16.7868 29.8099 17.7431 31.8041 20.2663L34.1034 23.1965L35.5685 22.057L37.8678 24.9871L34.9377 27.2865L39.5364 33.1671L36.6062 35.4665L32.0075 29.5858Z" fill="#1F1F1F"/>
<path d="M66.5793 50.0158V45.0508H70.71V50.0158H70.2013V45.3764L70.3438 45.5188H66.966L67.1084 45.3764V50.0361H66.5793V50.0158Z" fill="white"/>
<path d="M75.9396 50.0567C75.5733 50.0567 75.2274 49.9957 74.9222 49.8736C74.617 49.7515 74.3321 49.5683 74.1083 49.3445C73.8844 49.1207 73.7013 48.8562 73.5589 48.5509C73.4368 48.2457 73.3757 47.9201 73.3757 47.5539C73.3757 47.1876 73.4368 46.862 73.5589 46.5568C73.681 46.2516 73.8641 45.987 74.1083 45.7632C74.3321 45.5394 74.617 45.3563 74.9222 45.2342C75.2274 45.1121 75.5733 45.051 75.96 45.051C76.3262 45.051 76.6722 45.1121 76.9774 45.2342C77.2826 45.3563 77.5675 45.5394 77.7913 45.7632C78.0151 45.987 78.1983 46.2516 78.3407 46.5568C78.4628 46.862 78.5238 47.2079 78.5238 47.5539C78.5238 47.9201 78.4628 48.2457 78.3407 48.5509C78.2186 48.8562 78.0355 49.1207 77.7913 49.3445C77.5675 49.5683 77.2826 49.7515 76.9774 49.8736C76.6518 49.9957 76.3059 50.0567 75.9396 50.0567ZM75.9396 49.5887C76.2245 49.5887 76.5094 49.548 76.7535 49.4463C76.9977 49.3445 77.2216 49.2021 77.4047 49.0189C77.5878 48.8358 77.7303 48.612 77.832 48.3678C77.9337 48.1236 77.9948 47.8387 77.9948 47.5539C77.9948 47.269 77.9337 46.9841 77.832 46.7399C77.7303 46.4958 77.5878 46.2719 77.4047 46.0888C77.2216 45.9057 76.9977 45.7632 76.7535 45.6615C76.5094 45.5597 76.2245 45.519 75.9396 45.519C75.6547 45.519 75.3699 45.5597 75.1257 45.6615C74.8815 45.7632 74.6577 45.9057 74.4745 46.0888C74.2914 46.2719 74.149 46.4958 74.0472 46.7399C73.9455 46.9841 73.8844 47.269 73.8844 47.5539C73.8844 47.8387 73.9455 48.1236 74.0472 48.3678C74.149 48.612 74.2914 48.8358 74.4745 49.0189C74.6577 49.2021 74.8815 49.3445 75.1257 49.4463C75.3699 49.548 75.6344 49.5887 75.9396 49.5887Z" fill="white"/>
<path d="M81.1694 50.016V45.051H84.7507V45.4987H81.6781V47.1266H83.2857C83.8554 47.1266 84.3031 47.2486 84.6083 47.4928C84.9135 47.737 85.056 48.0829 85.056 48.5509C85.056 49.0189 84.8932 49.3852 84.5676 49.6497C84.242 49.9143 83.774 50.0364 83.1636 50.0364H81.1694V50.016ZM81.6781 49.609H83.1636C83.6112 49.609 83.9572 49.5276 84.181 49.3445C84.4048 49.1614 84.5269 48.9172 84.5269 48.5713C84.5269 47.8998 84.0792 47.5539 83.1636 47.5539H81.6781V49.609Z" fill="white"/>
<path d="M88.9829 49.121L86.8667 45.0514H87.4161L89.2678 48.6937L88.9829 49.121ZM87.4568 49.528C87.701 49.6297 87.9248 49.6501 88.1283 49.589C88.3318 49.5483 88.5353 49.3652 88.7184 49.0803L88.9626 48.6937L89.0033 48.6327L90.8753 45.031H91.384L89.1661 49.1821C89.0236 49.4669 88.8405 49.6908 88.637 49.8332C88.4335 49.9756 88.2097 50.057 87.9859 50.057C87.762 50.057 87.5382 50.0163 87.294 49.9349L87.4568 49.528Z" fill="white"/>
<path d="M94.6605 50.0162V45.3768L94.8029 45.5192H92.9309V45.0715H96.8785V45.5192H95.0268L95.1692 45.3768V50.0365H94.6605V50.0162Z" fill="white"/>
<path d="M101.314 50.0567C100.948 50.0567 100.602 49.9957 100.297 49.8736C99.9915 49.7515 99.7066 49.5683 99.4828 49.3445C99.259 49.1207 99.0758 48.8562 98.9334 48.5509C98.8113 48.2457 98.7502 47.9201 98.7502 47.5539C98.7502 47.1876 98.8113 46.862 98.9334 46.5568C99.0555 46.2516 99.2386 45.987 99.4828 45.7632C99.7066 45.5394 99.9915 45.3563 100.297 45.2342C100.602 45.1121 100.948 45.051 101.334 45.051C101.701 45.051 102.047 45.1121 102.352 45.2342C102.657 45.3563 102.942 45.5394 103.166 45.7632C103.39 45.987 103.573 46.2516 103.715 46.5568C103.837 46.862 103.898 47.2079 103.898 47.5539C103.898 47.9201 103.837 48.2457 103.715 48.5509C103.593 48.8562 103.41 49.1207 103.166 49.3445C102.942 49.5683 102.657 49.7515 102.352 49.8736C102.026 49.9957 101.68 50.0567 101.314 50.0567ZM101.314 49.5887C101.599 49.5887 101.884 49.548 102.128 49.4463C102.372 49.3445 102.596 49.2021 102.779 49.0189C102.962 48.8358 103.105 48.612 103.207 48.3678C103.308 48.1236 103.369 47.8387 103.369 47.5539C103.369 47.269 103.308 46.9841 103.207 46.7399C103.105 46.4958 102.962 46.2719 102.779 46.0888C102.596 45.9057 102.372 45.7632 102.128 45.6615C101.884 45.5597 101.599 45.519 101.314 45.519C101.029 45.519 100.744 45.5597 100.5 45.6615C100.256 45.7632 100.032 45.9057 99.8491 46.0888C99.6659 46.2719 99.5235 46.4958 99.4217 46.7399C99.32 46.9841 99.259 47.269 99.259 47.5539C99.259 47.8387 99.32 48.1236 99.4217 48.3678C99.5235 48.612 99.6659 48.8358 99.8491 49.0189C100.032 49.2021 100.256 49.3445 100.5 49.4463C100.744 49.548 101.029 49.5887 101.314 49.5887Z" fill="white"/>
<path d="M106.563 50.016V45.051H108.598C109.107 45.051 109.514 45.1528 109.819 45.3766C110.124 45.6004 110.267 45.9057 110.267 46.333C110.267 46.7399 110.124 47.0452 109.84 47.269C109.555 47.4725 109.188 47.5742 108.72 47.5742L108.842 47.3911C109.392 47.3911 109.799 47.4928 110.084 47.7167C110.369 47.9405 110.511 48.2457 110.511 48.673C110.511 49.1003 110.369 49.4259 110.063 49.6701C109.758 49.8939 109.331 50.016 108.72 50.016H106.563ZM107.072 47.3097H108.578C108.965 47.3097 109.249 47.2283 109.453 47.0859C109.656 46.9231 109.758 46.6992 109.758 46.394C109.758 46.0888 109.656 45.865 109.453 45.7022C109.249 45.5394 108.965 45.4783 108.578 45.4783H107.072V47.3097ZM107.072 49.609H108.741C109.148 49.609 109.473 49.5276 109.677 49.3852C109.901 49.2224 110.002 48.9782 110.002 48.6527C110.002 48.3271 109.901 48.1033 109.677 47.9405C109.453 47.798 109.148 47.7167 108.741 47.7167H107.072V49.609Z" fill="white"/>
<path d="M112.506 50.016L114.744 45.051H115.253L117.491 50.016H116.942L114.887 45.3562H115.09L113.035 50.016H112.506ZM113.401 48.6934L113.564 48.2661H116.413L116.576 48.6934H113.401Z" fill="white"/>
<path d="M124.104 50.0162V45.3768L124.247 45.5192H122.375V45.0715H126.322V45.5192H124.471L124.613 45.3768V50.0365H124.104V50.0162Z" fill="white"/>
<path d="M129.191 49.5683H132.142V50.016H128.682V45.051H132.04V45.4987H129.191V49.5683ZM129.15 47.269H131.735V47.7167H129.15V47.269Z" fill="white"/>
<path d="M134.116 45.051H134.706L136.09 47.0045L137.473 45.051H138.084L136.415 47.4318L138.226 50.016H137.616L136.09 47.8794L134.563 50.016H133.973L135.764 47.4521L134.116 45.051Z" fill="white"/>
<path d="M140.993 50.016H140.485V45.051H140.993V50.016ZM144.107 47.737H140.932V47.269H144.107V47.737ZM144.066 45.051H144.575V50.016H144.066V45.051Z" fill="white"/>
<path d="M147.648 50.016V45.051H148.156V50.016H147.648Z" fill="white"/>
<path d="M151.249 50.016V45.051H151.757V50.016H151.249ZM151.595 47.737V47.269H153.121V47.737H151.595ZM153.182 47.5946L152.714 47.5132L154.545 45.051H155.115L153.182 47.5946ZM154.606 50.016L152.714 47.5335L153.141 47.269L155.196 49.9957H154.606V50.016Z" fill="white"/>
<path d="M156.641 50.016L158.879 45.051H159.388L161.626 50.016H161.077L159.022 45.3562H159.225L157.17 50.016H156.641ZM157.536 48.6934L157.699 48.2661H160.548L160.711 48.6934H157.536Z" fill="white"/>
<path d="M166.693 49.4261L166.876 49.0599C167.1 49.243 167.324 49.3854 167.609 49.4872C167.874 49.5889 168.138 49.6296 168.423 49.6296C168.687 49.6296 168.952 49.5889 169.176 49.5075C169.4 49.4261 169.583 49.304 169.725 49.1413C169.868 48.9785 169.929 48.7953 169.929 48.5715C169.929 48.2866 169.807 48.0628 169.583 47.9C169.359 47.7372 169.033 47.6762 168.647 47.6762H167.589V47.2489H168.606C168.952 47.2489 169.217 47.1675 169.42 47.025C169.624 46.8826 169.705 46.6791 169.705 46.4146C169.705 46.2314 169.644 46.0687 169.542 45.9262C169.44 45.7838 169.278 45.682 169.094 45.621C168.911 45.5396 168.687 45.4989 168.464 45.4989C168.24 45.4989 167.996 45.5193 167.731 45.6007C167.487 45.6617 167.243 45.7838 166.999 45.9262L166.836 45.4989C167.121 45.3158 167.426 45.1937 167.731 45.1326C168.036 45.0716 168.342 45.0512 168.647 45.0716C168.932 45.0919 169.196 45.1733 169.44 45.2751C169.685 45.3972 169.868 45.5396 170.01 45.7227C170.153 45.9059 170.214 46.1297 170.214 46.3739C170.214 46.6181 170.153 46.8215 170.03 47.0047C169.908 47.1878 169.746 47.3303 169.542 47.4116C169.339 47.5134 169.074 47.5541 168.789 47.5541L168.81 47.3913C169.135 47.3913 169.42 47.4523 169.664 47.5541C169.908 47.6558 170.092 47.7983 170.234 48.0017C170.376 48.1849 170.437 48.4087 170.437 48.6732C170.437 48.9174 170.376 49.1209 170.254 49.3244C170.132 49.5075 169.969 49.6703 169.766 49.7924C169.562 49.9145 169.318 50.0162 169.074 50.0569C168.81 50.118 168.545 50.118 168.26 50.0976C167.975 50.0773 167.711 50.0162 167.426 49.9145C167.161 49.7721 166.917 49.6093 166.693 49.4261Z" fill="white"/>
<path d="M178.455 50.0567C178.109 50.0567 177.783 49.9957 177.498 49.8736C177.193 49.7515 176.949 49.5683 176.725 49.3445C176.501 49.1207 176.338 48.8562 176.216 48.5509C176.094 48.2457 176.033 47.8998 176.033 47.5539C176.033 47.1876 176.094 46.862 176.216 46.5568C176.338 46.2516 176.501 45.987 176.725 45.7632C176.949 45.5394 177.213 45.3563 177.498 45.2342C177.804 45.1121 178.109 45.051 178.455 45.051C178.841 45.051 179.187 45.1121 179.492 45.2342C179.818 45.3563 180.083 45.5394 180.306 45.7836L179.981 46.1091C179.777 45.9057 179.553 45.7429 179.289 45.6615C179.024 45.5597 178.76 45.519 178.475 45.519C178.19 45.519 177.946 45.5801 177.702 45.6818C177.458 45.7836 177.254 45.926 177.091 46.1091C176.908 46.2923 176.786 46.5161 176.684 46.7603C176.583 47.0045 176.542 47.2893 176.542 47.5742C176.542 47.8591 176.583 48.144 176.684 48.3881C176.786 48.6323 176.929 48.8562 177.091 49.0393C177.274 49.2224 177.478 49.3649 177.702 49.4666C177.946 49.5683 178.19 49.6294 178.475 49.6294C178.76 49.6294 179.045 49.5887 179.289 49.487C179.533 49.3852 179.777 49.2428 179.981 49.0393L180.306 49.3649C180.083 49.609 179.818 49.7922 179.492 49.9143C179.167 49.9957 178.821 50.0567 178.455 50.0567ZM179.065 47.3707V47.798H176.359V47.3707H179.065Z" fill="white"/>
<path d="M182.809 50.016V45.051H184.844C185.352 45.051 185.759 45.1528 186.065 45.3766C186.37 45.6004 186.512 45.9057 186.512 46.333C186.512 46.7399 186.37 47.0452 186.085 47.269C185.8 47.4725 185.434 47.5742 184.966 47.5742L185.088 47.3911C185.637 47.3911 186.044 47.4928 186.329 47.7167C186.614 47.9405 186.756 48.2457 186.756 48.673C186.756 49.1003 186.614 49.4259 186.309 49.6701C186.004 49.9143 185.576 50.016 184.966 50.016H182.809ZM183.318 47.3097H184.823C185.21 47.3097 185.495 47.2283 185.698 47.0859C185.902 46.9231 186.004 46.6992 186.004 46.394C186.004 46.0888 185.902 45.865 185.698 45.7022C185.495 45.5394 185.21 45.4783 184.823 45.4783H183.318V47.3097ZM183.318 49.609H184.986C185.393 49.609 185.719 49.5276 185.922 49.3852C186.146 49.2224 186.248 48.9782 186.248 48.6527C186.248 48.3271 186.146 48.1033 185.922 47.9405C185.698 47.798 185.393 47.7167 184.986 47.7167H183.318V49.609Z" fill="white"/>
<path d="M189.483 50.016V45.051H191.315C191.721 45.051 192.088 45.1121 192.393 45.2545C192.698 45.3969 192.922 45.5801 193.085 45.8446C193.248 46.0888 193.329 46.394 193.329 46.7603C193.329 47.1062 193.248 47.4114 193.085 47.6556C192.922 47.8998 192.698 48.1033 192.393 48.2457C192.088 48.3881 191.742 48.4492 191.315 48.4492H189.768L189.992 48.205V50.016H189.483ZM189.992 48.2457L189.768 47.9812H191.294C191.783 47.9812 192.149 47.8794 192.413 47.6556C192.678 47.4318 192.8 47.1469 192.8 46.7399C192.8 46.333 192.678 46.0277 192.413 45.8243C192.149 45.6004 191.783 45.4987 191.294 45.4987H189.768L189.992 45.2545V48.2457Z" fill="white"/>
<path d="M198.03 50.0567C197.663 50.0567 197.318 49.9957 197.012 49.8736C196.707 49.7515 196.422 49.5683 196.198 49.3445C195.975 49.1207 195.791 48.8562 195.649 48.5509C195.527 48.2457 195.466 47.9201 195.466 47.5539C195.466 47.1876 195.527 46.862 195.649 46.5568C195.771 46.2516 195.954 45.987 196.198 45.7632C196.422 45.5394 196.707 45.3563 197.012 45.2342C197.318 45.1121 197.663 45.051 198.05 45.051C198.416 45.051 198.762 45.1121 199.067 45.2342C199.373 45.3563 199.658 45.5394 199.881 45.7632C200.105 45.987 200.288 46.2516 200.431 46.5568C200.553 46.862 200.614 47.2079 200.614 47.5539C200.614 47.9201 200.553 48.2457 200.431 48.5509C200.309 48.8562 200.126 49.1207 199.881 49.3445C199.658 49.5683 199.373 49.7515 199.067 49.8736C198.722 49.9957 198.396 50.0567 198.03 50.0567ZM198.03 49.5887C198.315 49.5887 198.599 49.548 198.844 49.4463C199.088 49.3445 199.312 49.2021 199.495 49.0189C199.678 48.8358 199.82 48.612 199.922 48.3678C200.024 48.1236 200.085 47.8387 200.085 47.5539C200.085 47.269 200.024 46.9841 199.922 46.7399C199.82 46.4958 199.678 46.2719 199.495 46.0888C199.312 45.9057 199.088 45.7632 198.844 45.6615C198.599 45.5597 198.315 45.519 198.03 45.519C197.745 45.519 197.46 45.5597 197.216 45.6615C196.972 45.7632 196.748 45.9057 196.565 46.0888C196.381 46.2719 196.239 46.4958 196.137 46.7399C196.036 46.9841 195.975 47.269 195.975 47.5539C195.975 47.8387 196.036 48.1236 196.137 48.3678C196.239 48.612 196.381 48.8358 196.565 49.0189C196.748 49.2021 196.972 49.3445 197.216 49.4463C197.46 49.548 197.724 49.5887 198.03 49.5887Z" fill="white"/>
<path d="M203.259 50.016V45.051H207.39V50.016H206.881V45.3766L207.023 45.519H203.646L203.788 45.3766V50.0364H203.259V50.016Z" fill="white"/>
<path d="M210.462 50.016V45.051H210.971V49.1614L214.104 45.051H214.573V50.016H214.064V45.9057L210.93 50.016H210.462Z" fill="white"/>
<path d="M77.832 13.0835C81.1488 13.0835 83.8348 14.2637 85.8899 16.6037C87.9451 18.9438 88.9625 21.7315 88.9625 24.9262C88.9625 25.2518 88.9422 25.7198 88.8811 26.3099H69.184C69.4892 28.5889 70.4456 30.3795 72.0735 31.7225C73.7013 33.0452 75.7158 33.7167 78.0965 33.7167C79.8058 33.7167 81.2709 33.3707 82.5121 32.6585C83.7534 31.9667 84.6894 31.0307 85.3202 29.8912L87.9248 31.4173C86.948 33.0045 85.5847 34.2661 83.8958 35.1817C82.1865 36.1178 80.2535 36.5654 78.0762 36.5654C74.5559 36.5654 71.6868 35.4666 69.4689 33.2486C67.2509 31.0307 66.1521 28.2226 66.1521 24.8245C66.1521 21.467 67.2509 18.6793 69.4282 16.441C71.5851 14.223 74.3932 13.0835 77.832 13.0835ZM77.832 15.9526C75.492 15.9526 73.5589 16.6444 71.9717 18.0281C70.4049 19.4118 69.4689 21.2228 69.1636 23.4408H85.8899C85.5847 21.0804 84.669 19.249 83.1633 17.9264C81.6371 16.6241 79.8668 15.9526 77.832 15.9526Z" fill="white"/>
<path d="M109.454 13.6331H112.404V36.0569H109.454V32.557C107.785 35.2429 105.262 36.5859 101.925 36.5859C99.1981 36.5859 97.0615 35.7516 95.4947 34.1034C93.9279 32.4349 93.1343 30.2169 93.1343 27.4088V13.6331H96.0848V27.3885C96.0848 29.3826 96.6138 30.9494 97.6719 32.0483C98.7301 33.1471 100.236 33.7168 102.169 33.7168C104.326 33.7168 106.076 33.0453 107.419 31.682C108.762 30.3187 109.433 28.2228 109.433 25.374V13.6331H109.454Z" fill="white"/>
<path d="M121.011 19.5135C121.011 20.5309 121.459 21.3448 122.354 21.9349C123.25 22.525 124.349 22.993 125.63 23.3186C126.912 23.6442 128.194 24.0104 129.476 24.4174C130.758 24.8244 131.857 25.4959 132.752 26.4319C133.648 27.3679 134.095 28.6092 134.095 30.1353C134.095 32.048 133.342 33.5945 131.837 34.795C130.331 35.9956 128.377 36.5857 125.976 36.5857C123.819 36.5857 121.988 36.0973 120.482 35.141C118.977 34.1846 117.918 32.9433 117.328 31.4172L119.831 29.9318C120.259 31.0916 121.011 32.0073 122.09 32.6992C123.189 33.3707 124.471 33.7166 125.976 33.7166C127.441 33.7166 128.662 33.4317 129.659 32.8416C130.636 32.2515 131.145 31.3562 131.145 30.1353C131.145 29.1179 130.697 28.3039 129.802 27.7138C128.907 27.1237 127.808 26.6557 126.526 26.3301C125.244 26.0046 123.962 25.6383 122.66 25.2313C121.378 24.8244 120.279 24.1529 119.384 23.2169C118.488 22.2808 118.041 21.0396 118.041 19.5135C118.041 17.6821 118.773 16.1764 120.218 14.9351C121.663 13.7142 123.494 13.1038 125.712 13.1038C127.543 13.1038 129.13 13.5107 130.514 14.345C131.898 15.1589 132.915 16.2781 133.566 17.6821L131.104 19.1269C130.229 17.031 128.439 15.9932 125.732 15.9932C124.45 15.9932 123.331 16.2984 122.415 16.9089C121.479 17.499 121.011 18.374 121.011 19.5135Z" fill="white"/>
<path d="M150.028 16.5022H143.578V30.0948C143.578 31.3157 143.822 32.1907 144.29 32.7198C144.758 33.2488 145.49 33.5134 146.447 33.5337C147.403 33.5541 148.604 33.5337 150.028 33.4727V36.0772C146.894 36.5453 144.534 36.3214 142.967 35.4057C141.4 34.4697 140.607 32.7198 140.607 30.1152V16.5022H135.906V13.6331H140.607V8.24078L143.557 7.34546V13.6331H150.008V16.5022H150.028Z" fill="white"/>
<path d="M172.411 33.2079C170.131 35.4665 167.344 36.5857 164.047 36.5857C160.751 36.5857 157.963 35.4665 155.684 33.2079C153.405 30.9492 152.245 28.1615 152.245 24.8447C152.245 21.528 153.385 18.7402 155.684 16.4816C157.963 14.2229 160.751 13.1038 164.047 13.1038C167.344 13.1038 170.131 14.2229 172.411 16.4816C174.69 18.7402 175.849 21.528 175.849 24.8447C175.849 28.1615 174.71 30.9492 172.411 33.2079ZM157.78 31.1323C159.489 32.8619 161.585 33.7166 164.068 33.7166C166.55 33.7166 168.646 32.8619 170.335 31.1323C172.044 29.4231 172.899 27.3069 172.899 24.8244C172.899 22.3419 172.044 20.246 170.335 18.5164C168.626 16.8071 166.53 15.9322 164.068 15.9322C161.585 15.9322 159.489 16.7868 157.78 18.5164C156.071 20.2257 155.216 22.3419 155.216 24.8244C155.216 27.3272 156.071 29.4231 157.78 31.1323Z" fill="white"/>
<path d="M183.745 17.3569C185.129 14.6302 187.489 13.2668 190.826 13.2668V16.136C188.791 16.136 187.102 16.7261 185.759 17.9266C184.416 19.1272 183.745 20.9992 183.745 23.5834V36.0569H180.794V13.6331H183.745V17.3569Z" fill="white"/>
<path d="M203.869 13.0835C207.186 13.0835 209.872 14.2637 211.927 16.6037C213.982 18.9438 215 21.7315 215 24.9262C215 25.2518 214.979 25.7198 214.918 26.3099H195.242C195.547 28.5889 196.503 30.3795 198.131 31.7225C199.759 33.0452 201.773 33.7167 204.154 33.7167C205.863 33.7167 207.328 33.3707 208.57 32.6585C209.811 31.9667 210.747 31.0307 211.378 29.8912L213.982 31.4173C213.006 33.0045 211.642 34.2661 209.953 35.1817C208.244 36.1178 206.311 36.5654 204.134 36.5654C200.614 36.5654 197.744 35.4666 195.526 33.2486C193.309 31.0307 192.21 28.2226 192.21 24.8245C192.21 21.467 193.309 18.6793 195.486 16.441C197.622 14.223 200.43 13.0835 203.869 13.0835ZM203.869 15.9526C201.529 15.9526 199.596 16.6444 198.009 18.0281C196.442 19.4118 195.506 21.2228 195.201 23.4408H211.927C211.622 21.0804 210.727 19.249 209.201 17.9264C207.674 16.6241 205.904 15.9526 203.869 15.9526Z" fill="white"/>
<path d="M28.0398 55.51C43.2111 55.51 55.51 43.2111 55.51 28.0398C55.51 12.8684 43.2111 0.56958 28.0398 0.56958C12.8684 0.56958 0.56958 12.8684 0.56958 28.0398C0.56958 43.2111 12.8684 55.51 28.0398 55.51Z" stroke="#00BA67" stroke-width="1.15361" stroke-miterlimit="10"/>
<path opacity="0.45" d="M27.8564 35.9759C19.5747 35.9759 12.0661 32.537 6.55176 26.982C7.42673 15.4648 16.6242 6.43018 27.8564 6.43018C39.0887 6.43018 48.2861 15.4852 49.1611 26.982C43.6263 32.5574 36.1178 35.9759 27.8564 35.9759Z" fill="url(#paint0_linear_1_1659)"/>
<path opacity="0.37" d="M27.857 16.5224C33.3525 16.5224 37.8074 14.5911 37.8074 12.2086C37.8074 9.82615 33.3525 7.89478 27.857 7.89478C22.3616 7.89478 17.9067 9.82615 17.9067 12.2086C17.9067 14.5911 22.3616 16.5224 27.857 16.5224Z" fill="url(#paint1_linear_1_1659)"/>
<defs>
<linearGradient id="paint0_linear_1_1659" x1="28.9999" y1="72.938" x2="27.4565" y2="11.2038" gradientUnits="userSpaceOnUse">
<stop stop-color="white"/>
<stop offset="0.2606" stop-color="white" stop-opacity="0.7394"/>
<stop offset="1" stop-color="white" stop-opacity="0"/>
</linearGradient>
<linearGradient id="paint1_linear_1_1659" x1="28.0092" y1="38.7745" x2="27.813" y2="2.39378" gradientUnits="userSpaceOnUse">
<stop stop-color="white"/>
<stop offset="0.2606" stop-color="white" stop-opacity="0.7394"/>
<stop offset="1" stop-color="white" stop-opacity="0"/>
</linearGradient>
</defs>
</svg>
